<svg xmlns="http://www.w3.org/2000/svg" viewBox="0 0 1024 1024" width="1024" height="1024">
  <defs>
    <linearGradient id="bg" x1="0%" y1="0%" x2="100%" y2="100%">
      <stop offset="0%" style="stop-color:#0a0f1a"/>
      <stop offset="100%" style="stop-color:#0d1a0d"/>
    </linearGradient>
  </defs>
  <rect width="1024" height="1024" rx="180" fill="url(#bg)"/>
  <rect x="180" y="280" width="28" height="400" rx="8" fill="#2a3a4a" stroke="#3a5a6a" stroke-width="2"/>
  <rect x="816" y="280" width="28" height="400" rx="8" fill="#2a3a4a" stroke="#3a5a6a" stroke-width="2"/>
  <line x1="140" y1="330" x2="884" y2="330" stroke="#ef4444" stroke-width="14" stroke-linecap="round"/>
  <line x1="140" y1="430" x2="884" y2="430" stroke="#ef4444" stroke-width="14" stroke-linecap="round"/>
  <line x1="140" y1="530" x2="884" y2="530" stroke="#ef4444" stroke-width="14" stroke-linecap="round"/>
  <line x1="140" y1="630" x2="884" y2="630" stroke="#ef4444" stroke-width="14" stroke-linecap="round"/>
  <line x1="140" y1="380" x2="884" y2="380" stroke="#22c55e" stroke-width="9" stroke-linecap="round" opacity="0.8"/>
  <line x1="140" y1="480" x2="884" y2="480" stroke="#22c55e" stroke-width="9" stroke-linecap="round" opacity="0.8"/>
  <line x1="140" y1="580" x2="884" y2="580" stroke="#22c55e" stroke-width="9" stroke-linecap="round" opacity="0.8"/>
  <rect x="392" y="392" width="240" height="190" rx="20" fill="#0f0a00" stroke="#f59e0b" stroke-width="6"/>
  <polygon points="532,420 498,490 522,490 488,570 558,482 532,482 566,420" fill="#f59e0b"/>
  <circle cx="430" cy="552" r="18" fill="#ef4444"/>
  <text x="430" y="559" text-anchor="middle" font-family="monospace" font-size="22" font-weight="bold" fill="white">+</text>
  <circle cx="594" cy="552" r="18" fill="#22c55e"/>
  <text x="594" y="559" text-anchor="middle" font-family="monospace" font-size="22" font-weight="bold" fill="white">-</text>
</svg>
